# xmcd CD database file
#
# Track frame offsets:
#	150
#	15982
#	37352
#
# Disc length: 690 seconds
#
# Revision: 1
# Processed by: cddbd v1.5.2PL0 Copyright (c) Steve Scherf et al.
# Submitted via: CDex 1.70beta3
#
DISCID=1d02b003
DTITLE=Black Rebel Motorcycle Club - Weight Of The World
DYEAR=2005
DGENRE=Blues
TTITLE0=Weight Of The World (Cenzo Mix)
TTITLE1=Mercy
TTITLE2=Feel It Now
EXTD=YEAR: 2005
EXTT0=
EXTT1=
EXTT2=
PLAYORDER=
